<?xml version="1.0" encoding="iso-8859-1"?>
<!-- Generator: Adobe Illustrator 19.0.0, SVG Export Plug-In . SVG Version: 6.00 Build 0)  -->
<svg version="1.1" id="Capa_1" xmlns="http://www.w3.org/2000/svg" xmlns:xlink="http://www.w3.org/1999/xlink" x="0px" y="0px"
	 viewBox="0 0 58.004 58.004" style="enable-background:new 0 0 58.004 58.004;" xml:space="preserve">
<path style="fill:#F9EAB0;" d="M44.701,28.991c-0.229-0.967-0.712-1.849-1.308-2.644c-1.22-1.629-3.876-5.634-4.386-10.224
	c-0.037-0.331-0.085-0.644-0.143-0.94c-1.017-5.203-9.781-4.527-9.857,0.774c0,0.014,0,0.029,0,0.043h-0.003
	c0-0.056,0-0.111-0.001-0.166c-0.077-5.301-8.84-5.977-9.857-0.774c-0.058,0.296-0.106,0.609-0.143,0.94
	c-0.51,4.59-3.166,8.595-4.386,10.224c-0.596,0.795-1.079,1.677-1.308,2.644C12.152,33.741,17.002,36,17.002,36v6
	c0,0,4.75,2.333,5,8c0.211,4.792,2.926,7.201,3.759,7.83c0.124,0.093,0.3,0.053,0.369-0.086L29.005,54l2.873,3.867
	c0.069,0.139,0.245,0.179,0.369,0.086c0.833-0.629,3.547-3.037,3.759-7.83c0.25-5.667,5-8,5-8v-6
	C41.006,36.123,45.856,33.865,44.701,28.991z"/>
<path style="fill:#F5EFCA;" d="M55.988,0.325c0.086-0.258-0.248-0.444-0.422-0.235l-1.301,1.562
	c-1.851,2.221-5.263,2.355-5.263,7.913v-0.89c0,3.493-2.109,6.325-5.602,6.325h-4.592c0.015,0.064,0.043,0.118,0.056,0.183
	c0.058,0.296,0.106,0.609,0.143,0.94c0.288,2.593,1.262,4.98,2.274,6.877h3.721c5.523,0,10-4.477,10-10v-2.91
	c0-0.996,0.326-3.672,0.667-5.479c0.23-1.219,0.328-2.46,0.323-3.701L55.988,0.325z"/>
<path style="fill:#F5EFCA;" d="M19.002,16c0.037-0.331,0.085-0.644,0.143-0.94c0.004-0.022,0.014-0.039,0.018-0.06h-4.559
	c-3.493,0-5.602-2.832-5.602-6.325v0.89c0-5.559-3.412-5.692-5.263-7.913L2.437,0.09C2.264-0.119,1.93,0.067,2.016,0.325L2.013,0.91
	C2.007,2.15,2.106,3.391,2.335,4.61c0.34,1.807,0.667,4.483,0.667,5.479V13c0,5.523,4.477,10,10,10h3.66
	C17.697,21.085,18.707,18.649,19.002,16z"/>
<line style="fill:none;stroke:#E4C05C;stroke-width:2;stroke-linecap:round;stroke-miterlimit:10;" x1="29.002" y1="26" x2="29.002" y2="23"/>
<line style="fill:none;stroke:#E4C05C;stroke-width:2;stroke-linecap:round;stroke-miterlimit:10;" x1="29.002" y1="16" x2="29.002" y2="18"/>
<line style="fill:none;stroke:#E4C05C;stroke-width:2;stroke-linecap:round;stroke-miterlimit:10;" x1="29.002" y1="35" x2="29.002" y2="45"/>
<line style="fill:none;stroke:#E4C05C;stroke-width:2;stroke-linecap:round;stroke-miterlimit:10;" x1="29.002" y1="52.004" x2="29.002" y2="51.004"/>
<line style="fill:none;stroke:#E4C05C;stroke-width:2;stroke-linecap:round;stroke-miterlimit:10;" x1="29.002" y1="49" x2="35.002" y2="43"/>
<line style="fill:none;stroke:#E4C05C;stroke-width:2;stroke-linecap:round;stroke-miterlimit:10;" x1="29.002" y1="49" x2="23.002" y2="43"/>
<line style="fill:none;stroke:#E4C05C;stroke-width:2;stroke-linecap:round;stroke-miterlimit:10;" x1="29.002" y1="49" x2="31.002" y2="51"/>
<line style="fill:none;stroke:#E4C05C;stroke-width:2;stroke-linecap:round;stroke-miterlimit:10;" x1="29.002" y1="49" x2="27.002" y2="51"/>
<line style="fill:none;stroke:#E4C05C;stroke-width:2;stroke-linecap:round;stroke-miterlimit:10;" x1="31.002" y1="51" x2="33.002" y2="49"/>
<line style="fill:none;stroke:#E4C05C;stroke-width:2;stroke-linecap:round;stroke-miterlimit:10;" x1="27.002" y1="51" x2="25.002" y2="49"/>
<line style="fill:none;stroke:#E4C05C;stroke-width:2;stroke-linecap:round;stroke-miterlimit:10;" x1="33.002" y1="30" x2="29.002" y2="26"/>
<line style="fill:none;stroke:#E4C05C;stroke-width:2;stroke-linecap:round;stroke-miterlimit:10;" x1="25.002" y1="30" x2="29.002" y2="26"/>
<line style="fill:none;stroke:#E4C05C;stroke-width:2;stroke-linecap:round;stroke-miterlimit:10;" x1="33.002" y1="30.064" x2="29.002" y2="35"/>
<line style="fill:none;stroke:#E4C05C;stroke-width:2;stroke-linecap:round;stroke-miterlimit:10;" x1="25.002" y1="30.064" x2="29.002" y2="35"/>
<path style="fill:#7F6E5D;" d="M40.076,32c2.617-1.94,3.343-5.669,2.356-7l-9.354,4.96c-0.039,0.021-0.055,0.07-0.027,0.105
	C34.099,31.413,37.5,33.91,40.076,32z"/>
<path style="fill:#7F6E5D;" d="M17.928,32c-2.617-1.94-3.343-5.669-2.356-7l9.354,4.96c0.039,0.021,0.055,0.07,0.027,0.105
	C23.905,31.413,20.503,33.91,17.928,32z"/>
<path style="fill:#C4BC97;" d="M16.662,23c1.035-1.915,2.046-4.351,2.34-7c0.037-0.331,0.085-0.644,0.143-0.94
	c0.004-0.022,0.014-0.039,0.018-0.06h-0.777l-3.442,8H16.662z"/>
<path style="fill:#C4BC97;" d="M41.311,23c-1.035-1.915-2.046-4.351-2.34-7c-0.037-0.331-0.085-0.644-0.143-0.94
	c-0.004-0.022-0.014-0.039-0.018-0.06h0.777l3.442,8H41.311z"/>
<g>
</g>
<g>
</g>
<g>
</g>
<g>
</g>
<g>
</g>
<g>
</g>
<g>
</g>
<g>
</g>
<g>
</g>
<g>
</g>
<g>
</g>
<g>
</g>
<g>
</g>
<g>
</g>
<g>
</g>
</svg>
