<?xml version="1.0" encoding="iso-8859-1"?>
<!-- Generator: Adobe Illustrator 19.0.0, SVG Export Plug-In . SVG Version: 6.00 Build 0)  -->
<svg version="1.1" id="Capa_1" xmlns="http://www.w3.org/2000/svg" xmlns:xlink="http://www.w3.org/1999/xlink" x="0px" y="0px"
	 viewBox="0 0 340 340" style="enable-background:new 0 0 340 340;" xml:space="preserve">
<g id="XMLID_2084_">
	<path id="XMLID_2085_" style="fill:#A0815C;" d="M170,140.001c-4.561,6.072-11.822,10-20.001,10c-2.021,0-3.981-0.246-5.862-0.698
		L155,200h-15l15,70h-15l15,70h30l15-70h-15l15-70h-15l10.863-50.697c-1.881,0.452-3.843,0.698-5.863,0.698
		C181.821,150.001,174.561,146.073,170,140.001z"/>
	<path id="XMLID_2086_" style="fill:#64C37D;" d="M149.999,100.001c8.179,0,15.439,3.928,20.001,10l0,0c0-30.28,0-96.754,0-98.98
		c-5.281-3.099-11.35-5.698-18.327-7.512C75.681-16.241,40.648,53.825,40.648,53.825c31.343-12.813,55.99-12.716,74.709-7.33
		c-12.21,3.75-25.493,9.932-38.778,19.896C3.614,121.112,41.546,218.199,41.546,218.199c18.92-56.76,54.865-79.451,83.933-88.326
		c-0.312-1.576-0.479-3.204-0.479-4.872C125,111.193,136.193,100.001,149.999,100.001z"/>
	<path id="XMLID_2087_" style="fill:#4B925E;" d="M263.422,66.391c-13.285-9.964-26.568-16.146-38.778-19.896
		c18.719-5.386,43.366-5.483,74.709,7.33c0,0-35.033-70.066-111.025-50.316C181.35,5.322,175.281,7.922,170,11.021
		c0,2.227,0,68.7,0,98.98c4.562-6.072,11.821-10,20-10c13.807,0,25,11.192,25,25c0,1.668-0.167,3.296-0.479,4.872
		c29.067,8.875,65.014,31.566,83.933,88.326C298.454,218.199,336.386,121.112,263.422,66.391z"/>
	<path id="XMLID_2088_" style="fill:#50412E;" d="M190,100.001c-8.179,0-15.438,3.928-20,10l0,0c-4.561-6.072-11.822-10-20.001-10
		c-13.806,0-24.999,11.192-24.999,25c0,1.668,0.167,3.296,0.479,4.872c1.89,9.566,9.234,17.164,18.658,19.43
		c1.881,0.452,3.842,0.698,5.862,0.698c8.179,0,15.439-3.928,20.001-10c4.561,6.072,11.821,10,20,10
		c2.021,0,3.982-0.246,5.863-0.698c9.424-2.267,16.769-9.864,18.658-19.43c0.312-1.576,0.479-3.204,0.479-4.872
		C215,111.193,203.807,100.001,190,100.001z"/>
</g>
<g>
</g>
<g>
</g>
<g>
</g>
<g>
</g>
<g>
</g>
<g>
</g>
<g>
</g>
<g>
</g>
<g>
</g>
<g>
</g>
<g>
</g>
<g>
</g>
<g>
</g>
<g>
</g>
<g>
</g>
</svg>
